<svg id="Layer_1" data-name="Layer 1" xmlns="http://www.w3.org/2000/svg" viewBox="0 0 512 416.03"><defs><style>.cls-1{fill:#1dcaff;}</style></defs><title>twitter</title><path class="cls-1" d="M161,464C354.22,464,459.9,303.94,459.9,165.13c0-4.55,0-9.07-.31-13.58A213.66,213.66,0,0,0,512,97.18a209.79,209.79,0,0,1-60.33,16.52,105.43,105.43,0,0,0,46.18-58.1,210.48,210.48,0,0,1-66.7,25.5A105.22,105.22,0,0,0,354.55,48c-57.68,0-105.14,47.46-105.14,105.14a105.06,105.06,0,0,0,2.72,23.77A298.35,298.35,0,0,1,35.64,67.15C7.91,114.88,22.26,176.73,68.16,207.38a104.37,104.37,0,0,1-47.68-13.15v1.33a105.39,105.39,0,0,0,84.28,103,104.91,104.91,0,0,1-47.44,1.81,105.41,105.41,0,0,0,98.14,73A210.83,210.83,0,0,1,25,418.34a213.32,213.32,0,0,1-25-1.51,297.41,297.41,0,0,0,161,47.1" transform="translate(0 -47.99)"/></svg>