<svg id="Layer_1" data-name="Layer 1" xmlns="http://www.w3.org/2000/svg" viewBox="0 0 511 508.26"><defs><style>.cls-1{fill:#2f98f7;}.cls-2{fill:#3193dd;}.cls-3{fill:#1ec177;}.cls-4{fill:#25a568;}.cls-5{fill:#ffbf73;}.cls-6{fill:#eab071;}.cls-7{fill:#ff3162;}.cls-8{fill:#e82a60;}.cls-9{fill:#cecece;}</style></defs><title>statistics</title><path class="cls-1" d="M783.14,577.7H717.21A13.2,13.2,0,0,0,704,590.91v196h92.35v-196A13.21,13.21,0,0,0,783.14,577.7Z" transform="translate(-704 -278.67)"/><path class="cls-2" d="M748.05,577.7H717.21A13.2,13.2,0,0,0,704,590.91v196h30.85v-196A13.2,13.2,0,0,1,748.05,577.7Z" transform="translate(-704 -278.67)"/><path class="cls-3" d="M922.7,526H856.76a13.2,13.2,0,0,0-13.21,13.21V786.92H935.9V539.2A13.2,13.2,0,0,0,922.7,526Z" transform="translate(-704 -278.67)"/><path class="cls-4" d="M887.6,526H856.76a13.2,13.2,0,0,0-13.21,13.21V786.92H874.4V539.2A13.2,13.2,0,0,1,887.6,526Z" transform="translate(-704 -278.67)"/><path class="cls-5" d="M1062.25,474.28H996.31a13.21,13.21,0,0,0-13.21,13.2V786.92h92.35V487.48A13.2,13.2,0,0,0,1062.25,474.28Z" transform="translate(-704 -278.67)"/><path class="cls-6" d="M1027.15,474.28H996.31a13.21,13.21,0,0,0-13.21,13.2V786.92H1014V487.48A13.2,13.2,0,0,1,1027.15,474.28Z" transform="translate(-704 -278.67)"/><path class="cls-7" d="M1201.8,422.57h-65.94a13.2,13.2,0,0,0-13.2,13.2V786.92H1215V435.77A13.2,13.2,0,0,0,1201.8,422.57Z" transform="translate(-704 -278.67)"/><path class="cls-8" d="M1166.71,422.57h-30.85a13.2,13.2,0,0,0-13.2,13.2V786.92h30.84V435.77A13.21,13.21,0,0,1,1166.71,422.57Z" transform="translate(-704 -278.67)"/><path class="cls-9" d="M1146.58,278.68l-69.94,3.93a7,7,0,0,0-5,11.55l12.73,15.15c-35.77,26.16-151.07,101.05-316.11,116.2l4.25,46.3c111.84-10.27,201.69-46.45,257.37-75,40.74-20.88,69.5-40.68,84.47-51.82l11.29,13.44a7,7,0,0,0,12.23-2.92l15.94-68.21A7,7,0,0,0,1146.58,278.68Z" transform="translate(-704 -278.67)"/></svg>